<?xml version="1.0" standalone="no"?>
<!DOCTYPE svg PUBLIC "-//W3C//DTD SVG 20010904//EN"
 "http://www.w3.org/TR/2001/REC-SVG-20010904/DTD/svg10.dtd">
<svg version="1.0" xmlns="http://www.w3.org/2000/svg"
 width="720.000000pt" height="720.000000pt" viewBox="0 0 720.000000 720.000000"
 preserveAspectRatio="xMidYMid meet">
<metadata>
Created by potrace 1.11, written by Peter Selinger 2001-2013
</metadata>
<g transform="translate(0.000000,720.000000) scale(0.100000,-0.100000)"
fill="#000000" stroke="none">
<path d="M2253 6035 c-32 -22 -97 -202 -213 -585 -137 -455 -289 -1134 -431
-1930 -34 -190 -89 -585 -89 -636 0 -18 -3 -34 -6 -34 -3 0 -33 17 -67 38 -57
35 -65 37 -141 36 -235 -2 -366 -171 -366 -469 0 -237 109 -454 268 -532 51
-25 67 -28 157 -27 75 0 114 6 156 21 l56 21 84 -82 c166 -161 366 -283 589
-361 247 -86 268 -89 625 -90 l320 -1 120 -68 c188 -108 376 -228 508 -326 67
-49 131 -90 142 -90 24 0 56 32 106 105 18 28 34 51 35 53 0 1 17 -4 37 -13
76 -31 218 -67 372 -92 137 -23 190 -27 370 -27 182 0 222 3 304 22 120 29
195 54 301 102 69 31 100 39 165 43 128 8 275 68 437 179 95 65 196 166 227
226 49 96 66 337 35 490 -56 275 -223 584 -542 1007 -50 65 -52 71 -52 131 0
35 -5 66 -11 70 -6 3 -35 6 -63 5 -49 -1 -54 2 -99 47 -45 46 -47 50 -36 79 9
26 7 40 -10 78 -15 34 -19 58 -15 89 l6 43 107 7 c117 8 266 37 351 69 78 29
182 100 236 160 25 29 66 95 92 147 l47 95 0 110 c0 99 -3 116 -27 168 -57
122 -138 189 -315 262 -51 21 -93 40 -93 42 0 2 23 31 50 64 28 33 50 69 50
79 0 61 -435 346 -634 416 -54 19 -70 12 -102 -50 l-27 -52 -61 16 c-115 32
-288 52 -471 55 l-180 3 -64 58 c-98 89 -221 266 -316 454 -19 38 -44 74 -55
80 -22 12 -18 16 -133 -108 -76 -83 -167 -141 -272 -173 -52 -17 -266 -39
-371 -39 -369 0 -693 181 -981 548 -36 45 -70 82 -77 82 -6 0 -21 -7 -33 -15z
m157 -240 c142 -152 321 -291 450 -348 154 -67 331 -107 477 -107 120 0 347
28 418 52 98 32 185 87 267 166 43 42 79 74 81 71 2 -2 21 -35 41 -74 60 -112
178 -285 241 -353 108 -118 226 -187 535 -309 96 -39 246 -94 333 -122 86 -29
157 -54 157 -57 0 -2 -18 -27 -40 -56 -47 -62 -110 -187 -139 -275 -70 -211
-66 -514 9 -680 l30 -66 -103 7 c-159 11 -646 54 -815 72 -131 15 -155 15
-167 3 -16 -17 -37 -264 -34 -407 l2 -95 -69 -60 c-157 -138 -335 -346 -437
-512 -27 -43 -49 -66 -79 -81 l-43 -22 -130 45 c-391 135 -765 395 -939 651
-38 55 -55 72 -73 72 -54 0 -37 -56 52 -175 176 -233 554 -485 929 -619 164
-59 171 -67 133 -142 -73 -144 -127 -334 -127 -444 0 -104 52 -300 96 -368 11
-17 13 -27 5 -31 -6 -4 -72 -13 -146 -21 l-135 -13 -108 50 c-233 109 -307
126 -300 66 3 -23 16 -31 122 -74 65 -26 121 -51 125 -54 3 -4 -102 -5 -234
-2 -267 6 -300 11 -520 87 -237 82 -414 195 -597 382 -112 115 -140 129 -146
76 -4 -33 -40 -46 -144 -55 -96 -8 -148 9 -216 71 -115 106 -180 318 -152 501
22 144 65 224 149 273 40 23 57 27 126 27 72 0 84 -3 124 -30 79 -54 83 -64
72 -190 -6 -70 -6 -116 0 -127 11 -20 44 -24 55 -7 3 6 17 115 30 242 29 281
73 606 114 827 17 91 40 215 51 275 56 311 224 1073 291 1320 61 228 185 621
238 760 l12 30 31 -40 c18 -22 61 -71 97 -110z m3101 -758 c138 -70 266 -151
363 -231 l65 -53 -41 -49 c-22 -27 -43 -50 -48 -52 -5 -2 -390 127 -500 168
-14 5 -37 14 -51 19 l-27 10 28 78 c40 112 68 173 79 173 5 0 64 -28 132 -63z
m-595 22 c107 -10 198 -26 281 -48 l41 -11 -15 -53 c-9 -28 -17 -57 -19 -64
-2 -8 -14 -8 -46 2 -76 23 -200 72 -328 129 l-125 55 51 1 c28 0 100 -5 160
-11z m1129 -659 c3 -5 1 -10 -4 -10 -6 0 -11 5 -11 10 0 6 2 10 4 10 3 0 8 -4
11 -10z m-671 -157 c13 -42 -3 -24 -29 32 -14 31 -25 59 -25 63 0 11 47 -70
54 -95z m-44 -98 c21 -38 21 -39 1 -15 -11 14 -30 43 -41 65 -21 38 -21 39 -1
15 11 -14 30 -43 41 -65z m670 -203 c0 -15 -2 -15 -10 -2 -13 20 -13 33 0 25
6 -3 10 -14 10 -23z m-596 -57 l28 -40 -31 33 c-17 18 -31 37 -31 44 0 6 1 9
3 7 2 -2 15 -22 31 -44z m256 -111 c18 -25 30 -47 28 -49 -1 -2 -18 19 -36 46
-41 62 -34 65 8 3z m246 -52 c-4 -3 -14 2 -24 12 -16 18 -16 18 6 6 13 -6 21
-14 18 -18z m-298 -17 c-3 -3 -9 2 -12 12 -6 14 -5 15 5 6 7 -7 10 -15 7 -18z
m-113 -45 c10 -11 14 -20 9 -20 -5 0 -15 9 -22 20 -7 11 -11 20 -9 20 2 0 12
-9 22 -20z m-1169 -16 c19 -5 20 -9 11 -34 -8 -20 -8 -39 0 -63 9 -32 8 -37
-16 -61 -21 -21 -26 -36 -26 -74 0 -26 3 -56 7 -67 6 -16 0 -25 -27 -42 -19
-13 -38 -23 -41 -23 -8 0 3 347 11 361 7 10 49 12 81 3z m126 -31 c-6 -2 -9
-10 -6 -15 4 -7 2 -8 -5 -4 -13 9 -5 26 12 25 9 0 8 -2 -1 -6z m78 -3 c8 -5
11 -10 5 -10 -5 0 -3 -4 4 -9 12 -8 9 -11 -12 -16 -15 -4 -34 -5 -42 -1 -8 3
-15 1 -15 -5 0 -15 -43 -7 -46 9 -1 7 0 8 3 2 8 -17 27 -11 48 15 22 27 33 30
55 15z m348 -44 c23 -16 42 -32 42 -36 0 -4 -29 -6 -65 -6 -36 1 -65 5 -65 9
0 5 -8 7 -17 6 -45 -4 -63 3 -84 32 l-22 32 84 -5 c71 -4 91 -9 127 -32z m289
-2 c31 -5 80 -50 68 -63 -4 -3 -10 1 -14 8 -6 9 -11 10 -15 2 -4 -6 -17 -11
-29 -10 -20 1 -20 2 3 9 17 5 -2 8 -61 9 -83 1 -86 2 -107 31 l-23 30 73 -5
c40 -4 87 -8 105 -11z m-584 -1 c3 -5 -9 -9 -26 -10 -26 -1 -28 0 -12 7 26 11
33 12 38 3z m875 -15 c-3 -7 -29 -18 -59 -25 -30 -6 -50 -12 -45 -12 5 -1 6
-4 3 -7 -7 -7 -46 35 -47 49 0 4 34 7 76 7 56 0 75 -3 72 -12z m-391 -44 c-3
-3 -12 -4 -19 -1 -8 3 -5 6 6 6 11 1 17 -2 13 -5z m330 0 c-3 -3 -12 -4 -19
-1 -8 3 -5 6 6 6 11 1 17 -2 13 -5z m-793 -70 c3 -9 11 -12 17 -8 8 4 7 9 -2
15 -10 6 -10 9 -2 9 18 0 22 -14 10 -31 -11 -14 -15 -12 -35 13 -15 17 -18 26
-9 22 9 -3 18 -12 21 -20z m-184 -7 c0 -8 -3 -7 -9 2 -7 11 -11 10 -20 -5 -6
-11 -11 -14 -11 -8 0 14 22 34 32 28 4 -3 8 -11 8 -17z m61 -14 c39 -35 53
-60 34 -60 -8 0 -12 4 -9 9 6 10 -45 62 -53 54 -4 -3 2 -12 12 -20 10 -7 19
-20 21 -29 2 -18 -23 -44 -33 -33 -3 3 0 6 8 6 7 0 -3 11 -24 25 -21 15 -43
23 -50 19 -8 -6 -8 -3 1 9 13 15 16 14 40 -8 29 -27 38 -30 46 -17 3 5 -6 15
-19 22 -26 14 -33 30 -14 30 5 0 7 5 4 10 -11 18 5 10 36 -17z m176 -10 c-3
-10 -5 -4 -5 12 0 17 2 24 5 18 2 -7 2 -21 0 -30z m127 -4 c52 -46 82 -94 66
-104 -6 -4 -9 -1 -8 6 2 9 -12 14 -42 16 -82 7 -88 8 -83 16 2 4 -5 7 -16 7
-24 0 -35 30 -26 70 10 45 50 41 109 -11z m306 -5 c30 -20 80 -74 80 -87 0 -1
-30 -1 -67 1 -53 2 -65 0 -53 -8 13 -10 13 -11 -2 -7 -9 3 -34 9 -55 12 -28 5
-34 4 -23 -4 9 -6 10 -11 3 -11 -6 0 -22 19 -35 43 -13 23 -33 55 -43 71 l-19
29 89 -8 c69 -5 97 -13 125 -31z m379 -8 c-3 -3 -11 5 -18 17 -13 21 -12 21 5
5 10 -10 16 -20 13 -22z m-102 -8 c35 -34 43 -54 18 -44 -8 3 -15 2 -15 -2 0
-4 -15 -9 -33 -10 -18 -1 -42 -4 -54 -6 -16 -4 -28 6 -52 45 l-30 49 66 0 c62
0 70 -3 100 -32z m-697 -63 c7 -8 9 -15 6 -15 -4 0 -14 7 -22 15 -9 8 -11 15
-6 15 5 0 15 -7 22 -15z m140 -17 c0 -10 -61 -10 -77 0 -7 4 8 7 33 7 24 0 44
-3 44 -7z m-372 -46 l63 -18 -32 -39 c-44 -56 -63 -103 -48 -121 23 -28 53
-15 93 41 65 90 84 105 133 98 l41 -5 -5 -53 c-6 -58 8 -95 36 -95 28 0 38 19
45 83 l7 57 102 0 c56 0 145 3 197 6 l96 7 49 -72 c42 -61 53 -71 74 -69 15 2
27 10 29 20 3 13 -22 78 -45 119 -2 3 38 11 88 18 50 6 99 16 109 21 13 7 22
4 34 -9 17 -18 15 -19 -44 -26 -80 -9 -108 -35 -74 -69 13 -13 32 -15 118 -9
63 3 105 2 109 -4 3 -5 -32 -47 -79 -94 -83 -83 -95 -104 -72 -127 23 -23 44
-11 123 68 44 44 83 80 88 80 4 0 5 -40 1 -90 -7 -95 0 -120 37 -120 24 0 32
16 39 69 l5 45 111 -160 c197 -281 267 -399 329 -549 106 -255 128 -467 70
-663 -36 -120 -242 -282 -469 -367 -80 -30 -79 -30 -64 -6 9 15 9 23 -1 35
-20 23 -41 20 -97 -15 -283 -181 -625 -253 -974 -204 -301 42 -412 65 -481
101 l-29 14 45 84 c52 95 57 133 21 142 -14 3 -30 3 -36 -1 -6 -4 -31 -47 -55
-96 -25 -49 -47 -89 -50 -89 -11 0 -185 152 -204 179 -40 56 -87 64 -93 14 -3
-24 -5 -23 -76 33 -97 77 -164 167 -202 272 -58 161 -62 274 -16 434 26 90 84
228 95 228 3 0 28 -30 55 -65 27 -36 54 -65 61 -65 63 0 60 49 -10 136 -30 37
-53 69 -52 71 2 1 43 -6 92 -16 94 -19 126 -14 133 21 5 28 -25 45 -102 58
-110 19 -109 27 6 75 68 28 83 44 73 75 -8 24 -30 31 -60 20 -14 -5 -25 -7
-25 -4 0 3 33 49 73 102 134 179 349 384 502 480 28 18 50 32 50 31 0 0 28 -8
63 -17z m-796 -1888 c79 -66 131 -100 223 -145 66 -32 132 -68 148 -81 l28
-23 -36 -52 c-20 -29 -39 -53 -44 -53 -4 0 -37 22 -73 49 -94 71 -302 207
-452 294 -141 83 -140 80 -21 90 126 11 116 14 227 -79z"/>
<path d="M2754 4705 c-32 -22 -54 -77 -54 -135 0 -46 4 -56 34 -86 26 -26 42
-34 71 -34 106 0 155 181 68 250 -30 24 -89 26 -119 5z"/>
<path d="M4490 3595 c-10 -13 -9 -15 9 -15 12 0 21 6 21 15 0 8 -4 15 -9 15
-5 0 -14 -7 -21 -15z"/>
<path d="M4980 2900 c-13 -8 -15 -44 -14 -227 0 -193 16 -441 30 -478 8 -19
40 -25 60 -11 15 12 16 24 5 142 -7 71 -15 227 -19 347 -6 177 -10 220 -22
227 -19 12 -21 12 -40 0z"/>
<path d="M4477 2848 c-12 -9 -19 -35 -25 -88 l-7 -75 -61 -1 c-69 -1 -84 -7
-84 -35 0 -22 35 -39 80 -39 61 0 60 3 60 -175 l0 -162 -72 -19 c-66 -17 -73
-22 -76 -46 -2 -19 2 -28 16 -33 23 -7 196 27 275 53 47 15 52 20 52 47 0 25
-4 30 -28 33 -16 2 -41 -1 -57 -6 -36 -13 -37 -11 -32 158 l4 135 60 0 c47 0
63 4 72 18 15 23 -3 51 -35 55 -13 1 -39 5 -58 8 l-34 5 6 74 c5 60 4 77 -9
89 -19 19 -25 20 -47 4z"/>
<path d="M5114 2606 c-7 -19 8 -47 79 -138 59 -76 81 -90 105 -66 24 24 11 54
-58 136 -54 62 -77 82 -96 82 -13 0 -27 -6 -30 -14z"/>
<path d="M4660 2034 c-14 -2 -67 -14 -117 -25 -107 -24 -127 -42 -138 -125 -6
-44 5 -167 21 -230 5 -21 3 -24 -20 -24 -45 0 -180 -31 -203 -46 -30 -19 -30
-52 0 -59 13 -4 60 0 104 9 139 26 375 39 603 33 240 -7 423 -30 605 -77 63
-16 121 -27 129 -24 22 8 30 44 15 59 -16 15 -125 48 -214 65 -114 21 -104 14
-93 62 6 24 11 86 12 139 1 117 -3 123 -111 169 -141 59 -211 72 -398 75 -93
2 -181 1 -195 -1z m366 -89 c75 -14 243 -71 262 -90 8 -8 -16 -217 -26 -227
-4 -4 -35 -3 -67 4 -35 6 -194 12 -375 14 l-315 2 -7 43 c-4 24 -9 84 -10 133
l-3 90 55 13 c155 36 340 43 486 18z"/>
<path d="M4713 1894 c-13 -33 26 -190 51 -206 20 -13 45 -9 55 10 10 19 -29
173 -50 199 -15 18 -48 17 -56 -3z"/>
<path d="M5000 1858 c-6 -24 -20 -65 -32 -91 -25 -55 -17 -82 23 -82 29 0 63
56 80 132 14 60 3 83 -37 83 -19 0 -25 -8 -34 -42z"/>
</g>
</svg>
